/* XPM */
static char * stargazer_xpm[] = {
"25 25 137 2",
"  	c None",
". 	c #070632",
"+ 	c #090834",
"@ 	c #15153E",
"# 	c #03022F",
"$ 	c #848397",
"% 	c #2C2B50",
"& 	c #212047",
"* 	c #676780",
"= 	c #100F39",
"- 	c #1E1D45",
"; 	c #16153F",
"> 	c #0C0B36",
", 	c #0D0C37",
"' 	c #060532",
") 	c #0C0C37",
"! 	c #313054",
"~ 	c #080733",
"{ 	c #080734",
"] 	c #060531",
"^ 	c #78778E",
"/ 	c #9898A8",
"( 	c #0A0935",
"_ 	c #00002B",
": 	c #25254B",
"< 	c #24234A",
"[ 	c #403F61",
"} 	c #ADAEBA",
"| 	c #00002C",
"1 	c #0A0934",
"2 	c #11103A",
"3 	c #5E5D78",
"4 	c #363659",
"5 	c #12113B",
"6 	c #13123C",
"7 	c #040330",
"8 	c #555572",
"9 	c #0B0A35",
"0 	c #2D2C51",
"a 	c #353558",
"b 	c #050431",
"c 	c #03012E",
"d 	c #ADADB8",
"e 	c #26254B",
"f 	c #0E0D3D",
"g 	c #0C0B37",
"h 	c #77778D",
"i 	c #181740",
"j 	c #121152",
"k 	c #0F0E47",
"l 	c #101049",
"m 	c #42437D",
"n 	c #121240",
"o 	c #353457",
"p 	c #BABAC3",
"q 	c #0B0A36",
"r 	c #191948",
"s 	c #49497B",
"t 	c #070633",
"u 	c #131240",
"v 	c #44457D",
"w 	c #242455",
"x 	c #14133C",
"y 	c #3A395C",
"z 	c #B8B8C2",
"A 	c #0C0B3C",
"B 	c #45467E",
"C 	c #161544",
"D 	c #15144F",
"E 	c #494985",
"F 	c #0E0D3A",
"G 	c #42437A",
"H 	c #151443",
"I 	c #191840",
"J 	c #45466B",
"K 	c #3E3E76",
"L 	c #45467F",
"M 	c #161644",
"N 	c #080732",
"O 	c #0C0A39",
"P 	c #414177",
"Q 	c #29285B",
"R 	c #46477F",
"S 	c #2C2D60",
"T 	c #11103E",
"U 	c #0B0A37",
"V 	c #232253",
"W 	c #38396D",
"X 	c #0E0E3A",
"Y 	c #0C0B39",
"Z 	c #0C0B38",
"` 	c #0A0936",
" .	c #1E1C5F",
"..	c #43437A",
"+.	c #202051",
"@.	c #474880",
"#.	c #484981",
"$.	c #464780",
"%.	c #42437B",
"&.	c #3F4077",
"*.	c #44447C",
"=.	c #43447C",
"-.	c #56578F",
";.	c #7474AD",
">.	c #484880",
",.	c #3F3E78",
"'.	c #33316F",
").	c #2F2E6A",
"!.	c #292868",
"~.	c #29276C",
"{.	c #2E2C7D",
"].	c #151543",
"^.	c #242355",
"/.	c #38386E",
"(.	c #404078",
"_.	c #414178",
":.	c #3B3C73",
"<.	c #53548B",
"[.	c #6A6AA3",
"}.	c #53528C",
"|.	c #26255F",
"1.	c #2C2B65",
"2.	c #2D2C66",
"3.	c #2D2C65",
"4.	c #080834",
"5.	c #191845",
"6.	c #7676AC",
"7.	c #47467F",
"8.	c #2F2E68",
"9.	c #2B2A61",
"0.	c #2A285D",
"a.	c #33326C",
"b.	c #34326D",
"c.	c #35346B",
"d.	c #424178",
"e.	c #4F4E87",
"f.	c #282761",
"                                                  ",
"                . + + + @                         ",
"              # $ % + + & *                       ",
"            = + - ; + > , ' +                     ",
"          ) ! = ~ { ] ^ / ' +                     ",
"        (         ( + _ : + + +                   ",
"                  + + + + + + +                   ",
"                  + + + + + < ~                   ",
"                  + + + ' [ } | 1                 ",
"                  ~ ~ + + + 2 + +                 ",
"                  3 4 > + + + 5 (                 ",
"                1 ( 6 + + + 7 8 9                 ",
"                + + + + 1 | . 0 a b               ",
"                + + + + c d e + + +               ",
"              f ~ ~ 1 + g h i + + +               ",
"      j k l m n o p | + + 7 + q + ~ r             ",
"  s t + + u v w q x { + + + + y z A B C + + D     ",
"E ~ + + + F v G H ] + + + + + I J K L M + + N O   ",
"P + + + + N Q R R S T g q U U V R R W X Y Z ` +  .",
"..+ + + + + ~ +.@.#.$.%.&.&.*.=.-.;.>.,.'.).!.~.{.",
"  ].( + + + + ~ t ^./.(._.:.<.[.}.|.1.2.2.2.3.    ",
"      Z N ~ + + + + + 4.5.6.7.8.2.2.2.            ",
"          3.9.0.a.b.c.d.e.f.1.                    ",
"                                                  ",
"                                                  "};
