/* XPM */
static char * stargazer_xpm[] = {
"26 25 243 2",
"  	c None",
". 	c #A4AAB4",
"+ 	c #39556A",
"@ 	c #18405A",
"# 	c #103C5A",
"$ 	c #395573",
"% 	c #949DA4",
"& 	c #C5C6CD",
"* 	c #003862",
"= 	c #206594",
"- 	c #29618B",
"; 	c #9CB6D5",
"> 	c #39719C",
", 	c #A4BACD",
"' 	c #627583",
") 	c #DED9D8",
"! 	c #6A7173",
"~ 	c #183C5A",
"{ 	c #003462",
"] 	c #084883",
"^ 	c #41759C",
"/ 	c #3971A4",
"( 	c #4A81A4",
"_ 	c #5A89B4",
": 	c #395973",
"< 	c #838983",
"[ 	c #4A4C5A",
"} 	c #39404A",
"| 	c #185083",
"1 	c #39759C",
"2 	c #94B2CD",
"3 	c #4A79A4",
"4 	c #7399BD",
"5 	c #41657B",
"6 	c #313C41",
"7 	c #BDCADE",
"8 	c #ACB2C5",
"9 	c #10304A",
"0 	c #003C6A",
"a 	c #5281A4",
"b 	c #396D9C",
"c 	c #29699C",
"d 	c #CDDAEE",
"e 	c #4A81AC",
"f 	c #9CC2E6",
"g 	c #5A7183",
"h 	c #7B91A4",
"i 	c #B4BABD",
"j 	c #293439",
"k 	c #A4AEBD",
"l 	c #7B8994",
"m 	c #394852",
"n 	c #184C73",
"o 	c #315D8B",
"p 	c #20618B",
"q 	c #084C83",
"r 	c #3171AC",
"s 	c #2979B4",
"t 	c #297DBD",
"u 	c #3975A4",
"v 	c #185D8B",
"w 	c #627D94",
"x 	c #9C999C",
"y 	c #203039",
"z 	c #082839",
"A 	c #204C73",
"B 	c #083452",
"C 	c #104062",
"D 	c #084062",
"E 	c #083C6A",
"F 	c #18659C",
"G 	c #2079C5",
"H 	c #185D94",
"I 	c #082841",
"J 	c #94999C",
"K 	c #B4B6BD",
"L 	c #00385A",
"M 	c #083052",
"N 	c #00284A",
"O 	c #003052",
"P 	c #00386A",
"Q 	c #004073",
"R 	c #417DAC",
"S 	c #4A719C",
"T 	c #20384A",
"U 	c #10344A",
"V 	c #18446A",
"W 	c #204052",
"X 	c #52657B",
"Y 	c #838D94",
"Z 	c #B4AEAC",
"` 	c #CDBEA4",
" .	c #FFCE83",
"..	c #C5B6A4",
"+.	c #6A6D6A",
"@.	c #94959C",
"#.	c #395062",
"$.	c #626D73",
"%.	c #949194",
"&.	c #9C9DA4",
"*.	c #D5C29C",
"=.	c #EEE2DE",
"-.	c #F6E6DE",
";.	c #E6BE8B",
">.	c #E6D6C5",
",.	c #D5D6DE",
"'.	c #9C9194",
").	c #7B7973",
"!.	c #626162",
"~.	c #BDBABD",
"{.	c #A4A5A4",
"].	c #9C917B",
"^.	c #CDAA6A",
"/.	c #CDAA73",
"(.	c #DEC28B",
"_.	c #F6D6A4",
":.	c #BD995A",
"<.	c #C5BEC5",
"[.	c #838583",
"}.	c #C5BEBD",
"|.	c #A4A5AC",
"1.	c #837D7B",
"2.	c #DEAE6A",
"3.	c #E6BE73",
"4.	c #F6D694",
"5.	c #F6D69C",
"6.	c #F6CE83",
"7.	c #BD9962",
"8.	c #ACB2B4",
"9.	c #837D83",
"0.	c #9C9D9C",
"a.	c #5A5D62",
"b.	c #73695A",
"c.	c #DEB662",
"d.	c #DEBA73",
"e.	c #948D83",
"f.	c #ACA1A4",
"g.	c #ACAEAC",
"h.	c #948D94",
"i.	c #6A696A",
"j.	c #5A5962",
"k.	c #626562",
"l.	c #6A656A",
"m.	c #7B7D7B",
"n.	c #73757B",
"o.	c #837D6A",
"p.	c #AC9583",
"q.	c #D5B27B",
"r.	c #A4999C",
"s.	c #5A555A",
"t.	c #5A6162",
"u.	c #CDCACD",
"v.	c #8B8D8B",
"w.	c #8B8D94",
"x.	c #838183",
"y.	c #D5D2DE",
"z.	c #DEDADE",
"A.	c #A49DA4",
"B.	c #B4B2AC",
"C.	c #9C99A4",
"D.	c #103452",
"E.	c #527DA4",
"F.	c #205D8B",
"G.	c #737173",
"H.	c #BDB2BD",
"I.	c #D5CED5",
"J.	c #949594",
"K.	c #EEEAEE",
"L.	c #F6EEF6",
"M.	c #ACA5A4",
"N.	c #183441",
"O.	c #08446A",
"P.	c #526573",
"Q.	c #BDB6BD",
"R.	c #CDCECD",
"S.	c #E6DEE6",
"T.	c #CDC6CD",
"U.	c #41617B",
"V.	c #DED9DE",
"W.	c #62757B",
"X.	c #104473",
"Y.	c #185583",
"Z.	c #084873",
"`.	c #00406A",
" +	c #5A85AC",
".+	c #6A6D73",
"++	c #A4A1A4",
"@+	c #B4AAB4",
"#+	c #C5C2C5",
"$+	c #D5D2D5",
"%+	c #CDC6C5",
"&+	c #4A6D8B",
"*+	c #183852",
"=+	c #085083",
"-+	c #1865A4",
";+	c #184C7B",
">+	c #004473",
",+	c #83858B",
"'+	c #B4B2B4",
")+	c #395D73",
"!+	c #737D83",
"~+	c #18598B",
"{+	c #084C7B",
"]+	c #105994",
"^+	c #00345A",
"/+	c #83899C",
"(+	c #B4AEB4",
"_+	c #BDBAB4",
":+	c #29506A",
"<+	c #293841",
"[+	c #08304A",
"}+	c #315D83",
"|+	c #084073",
"1+	c #084473",
"2+	c #083C62",
"3+	c #083852",
"4+	c #00304A",
"5+	c #316183",
"6+	c #A49D9C",
"7+	c #5A616A",
"8+	c #081C31",
"9+	c #082C4A",
"0+	c #103C62",
"a+	c #08385A",
"b+	c #003C73",
"c+	c #8B9194",
"d+	c #082031",
"e+	c #082439",
"f+	c #18507B",
"g+	c #5279A4",
"h+	c #8B898B",
"i+	c #BDBEBD",
"j+	c #626973",
"k+	c #102839",
"l+	c #102439",
"m+	c #182020",
"n+	c #102029",
"o+	c #314C62",
"p+	c #7B8183",
"q+	c #CDC2C5",
"r+	c #BDB6B4",
"s+	c #ACAAAC",
"t+	c #ACA5AC",
"                  . + @ # $ %                       ",
"                & * = - ; > , '                     ",
"              ) ! ~ { ] ^ / ( _ :                   ",
"              < [ } $ | 1 2 3 4 _ 5                 ",
"              6 7 8 9 0 a b c d e f g h i           ",
"              j k l m n o p q r s t u v w           ",
"              x y z A B C D E ] F G H I J           ",
"                K L E M N O P Q H R S T             ",
"                  U V ~ W X Y Z `  ...+.            ",
"                  @.#.$.%.&.*.=.-.;.>.,.'.          ",
"                  ).!.~.{.].^./.(._.:.<.[.          ",
"                }.+.<.|.1.2.3.4.5.6.7.8.9.          ",
"                [.9.0.a.1.b.c.d.e.f.g.h.!.          ",
"                i.[.j.k.l.m.n.o.p.q.r.[.9.          ",
"                +.s.a.A t.u.v.w.x.y.z.A.B.          ",
"                C.D.E.F.G.H.I.J.<.K.L.w.M.          ",
"                N.M O O.P.%.~.Q.R.S.R.T.U.V.        ",
"              W.X.Y.Z.`. +.+++@+#+$+T.%+&+P.        ",
"              *+=+-+c ;+* >+,+'+'+T.'+}.)+I         ",
"            !+O ~+{+]+n D.^+/+x (+(+'+_+:+T         ",
"            <+[+}+|+1+2+3+4+5+6+%.Q.{.<.7+V.        ",
"            8+9+M 0+1+B 9+a+b+(+Q.x Q.v.6+          ",
"            c+d+I 9+B e+e+2+f+g+#+h+x.%.            ",
"              i+j+k+l+m+n+k+D.o+p+0.q+              ",
"                    r+s+++(+s+t+{.}.                "};
